<svg xmlns="http://www.w3.org/2000/svg" viewBox="0 0 64 64" role="img" aria-label="Mongo Pilot leaf bot">
  <rect width="64" height="64" rx="14" fill="#151714"/>
  <path d="M32 7C20.2 14.2 14 23.5 14 34.1 14 45.7 21.8 54 32 57c10.2-3 18-11.3 18-22.9C50 23.5 43.8 14.2 32 7Z" fill="#7ead65"/>
  <path d="M32 13v40" fill="none" stroke="#243021" stroke-width="2.5" stroke-linecap="round"/>
  <path d="M32 19c4.7 4.2 7.9 8.6 9.6 13.2M32 28c-4 3.2-6.8 6.7-8.4 10.6" fill="none" stroke="#a1ca88" stroke-width="1.5" stroke-linecap="round" opacity=".7"/>
  <path d="M25 25.5h14a7 7 0 0 1 7 7v7a7 7 0 0 1-7 7H25a7 7 0 0 1-7-7v-7a7 7 0 0 1 7-7Z" fill="#151714" stroke="#b9dbaa" stroke-width="1.5"/>
  <path d="M32 25.5v-4" stroke="#151714" stroke-width="2" stroke-linecap="round"/>
  <circle cx="32" cy="19.5" r="2.5" fill="#151714" stroke="#b9dbaa" stroke-width="1.5"/>
  <circle cx="26.5" cy="35.5" r="2.4" fill="#b9dbaa"/>
  <circle cx="37.5" cy="35.5" r="2.4" fill="#b9dbaa"/>
  <path d="M27 41c2.7 1.7 7.3 1.7 10 0" fill="none" stroke="#b9dbaa" stroke-width="1.5" stroke-linecap="round"/>
</svg>
